<?xml version="1.0" encoding="utf-8"?>
<svg version="1.1" xmlns="http://www.w3.org/2000/svg" xmlns:xlink="http://www.w3.org/1999/xlink" viewBox="80 80 500 500" enable-background="new 80 80 500 500" xml:space="preserve"><rect x="0" y="0" width="660" height="660" fill="rgb(255,255,255)" opacity="1.0" /><polygon points="240,90 260,80 260,100 240,100" fill="rgb(0,0,0)" opacity="1.0" /><rect x="280" y="80" width="20" height="20" fill="rgb(0,0,0)" opacity="1.0" /><rect x="300" y="80" width="20" height="20" fill="rgb(0,0,0)" opacity="1.0" /><rect x="320" y="80" width="20" height="20" fill="rgb(0,0,0)" opacity="1.0" /><rect x="400" y="80" width="20" height="20" fill="rgb(0,0,0)" opacity="1.0" /><polygon points="240,100 260,100 260,110 240,120" fill="rgb(0,0,0)" opacity="1.0" /><rect x="280" y="100" width="20" height="20" fill="rgb(0,0,0)" opacity="1.0" /><rect x="300" y="100" width="20" height="20" fill="rgb(0,0,0)" opacity="1.0" /><rect x="320" y="100" width="20" height="20" fill="rgb(0,0,0)" opacity="1.0" /><rect x="340" y="100" width="20" height="20" fill="rgb(0,0,0)" opacity="1.0" /><polygon points="380,110 400,100 400,120 380,120" fill="rgb(0,0,0)" opacity="1.0" /><polygon points="260,120 280,120 280,140 270,140" fill="rgb(0,0,0)" opacity="1.0" /><rect x="280" y="120" width="20" height="20" fill="rgb(0,0,0)" opacity="1.0" /><rect x="300" y="120" width="20" height="20" fill="rgb(0,0,0)" opacity="1.0" /><rect x="320" y="120" width="20" height="20" fill="rgb(0,0,0)" opacity="1.0" /><rect x="340" y="120" width="20" height="20" fill="rgb(0,0,0)" opacity="1.0" /><rect x="380" y="120" width="20" height="20" fill="rgb(0,0,0)" opacity="1.0" /><polygon points="400,120 410,120 420,140 400,140" fill="rgb(0,0,0)" opacity="1.0" /><rect x="240" y="140" width="20" height="20" fill="rgb(0,0,0)" opacity="1.0" /><rect x="300" y="140" width="20" height="20" fill="rgb(0,0,0)" opacity="1.0" /><rect x="320" y="140" width="20" height="20" fill="rgb(0,0,0)" opacity="1.0" /><rect x="340" y="140" width="20" height="20" fill="rgb(0,0,0)" opacity="1.0" /><rect x="380" y="140" width="20" height="20" fill="rgb(0,0,0)" opacity="1.0" /><polygon points="260,160 280,160 280,180 270,180" fill="rgb(0,0,0)" opacity="1.0" /><polygon points="280,160 290,160 300,180 280,180" fill="rgb(0,0,0)" opacity="1.0" /><rect x="320" y="160" width="20" height="20" fill="rgb(0,0,0)" opacity="1.0" /><polygon points="380,160 400,160 400,170 380,180" fill="rgb(0,0,0)" opacity="1.0" /><rect x="320" y="180" width="20" height="20" fill="rgb(0,0,0)" opacity="1.0" /><polygon points="360,190 380,180 380,200 360,200" fill="rgb(0,0,0)" opacity="1.0" /><polygon points="240,210 260,200 260,220 240,220" fill="rgb(0,0,0)" opacity="1.0" /><rect x="280" y="200" width="20" height="20" fill="rgb(0,0,0)" opacity="1.0" /><polygon points="320,200 340,200 340,210 320,220" fill="rgb(0,0,0)" opacity="1.0" /><rect x="360" y="200" width="20" height="20" fill="rgb(0,0,0)" opacity="1.0" /><polygon points="400,210 420,200 420,220 400,220" fill="rgb(0,0,0)" opacity="1.0" /><rect x="240" y="220" width="20" height="20" fill="rgb(0,0,0)" opacity="1.0" /><polygon points="260,220 270,220 280,240 260,240" fill="rgb(0,0,0)" opacity="1.0" /><rect x="300" y="220" width="20" height="20" fill="rgb(0,0,0)" opacity="1.0" /><polygon points="340,220 360,220 360,240 350,240" fill="rgb(0,0,0)" opacity="1.0" /><rect x="360" y="220" width="20" height="20" fill="rgb(0,0,0)" opacity="1.0" /><rect x="380" y="220" width="20" height="20" fill="rgb(0,0,0)" opacity="1.0" /><rect x="400" y="220" width="20" height="20" fill="rgb(0,0,0)" opacity="1.0" /><rect x="80" y="240" width="20" height="20" fill="rgb(0,0,0)" opacity="1.0" /><polygon points="120,240 140,240 140,260 130,260" fill="rgb(0,0,0)" opacity="1.0" /><polygon points="140,240 150,240 160,260 140,260" fill="rgb(0,0,0)" opacity="1.0" /><polygon points="180,240 200,240 200,260 190,260" fill="rgb(0,0,0)" opacity="1.0" /><rect x="200" y="240" width="20" height="20" fill="rgb(0,0,0)" opacity="1.0" /><rect x="220" y="240" width="20" height="20" fill="rgb(0,0,0)" opacity="1.0" /><polygon points="320,250 340,240 340,260 320,260" fill="rgb(0,0,0)" opacity="1.0" /><rect x="360" y="240" width="20" height="20" fill="rgb(0,0,0)" opacity="1.0" /><rect x="400" y="240" width="20" height="20" fill="rgb(0,0,0)" opacity="1.0" /><polygon points="440,250 460,240 460,260 440,260" fill="rgb(0,0,0)" opacity="1.0" /><rect x="500" y="240" width="20" height="20" fill="rgb(0,0,0)" opacity="1.0" /><rect x="540" y="240" width="20" height="20" fill="rgb(0,0,0)" opacity="1.0" /><rect x="560" y="240" width="20" height="20" fill="rgb(0,0,0)" opacity="1.0" /><polygon points="220,260 240,260 240,270 220,280" fill="rgb(0,0,0)" opacity="1.0" /><rect x="260" y="260" width="20" height="20" fill="rgb(0,0,0)" opacity="1.0" /><polygon points="300,260 320,260 320,280 310,280" fill="rgb(0,0,0)" opacity="1.0" /><rect x="320" y="260" width="20" height="20" fill="rgb(0,0,0)" opacity="1.0" /><rect x="360" y="260" width="20" height="20" fill="rgb(0,0,0)" opacity="1.0" /><rect x="380" y="260" width="20" height="20" fill="rgb(0,0,0)" opacity="1.0" /><rect x="400" y="260" width="20" height="20" fill="rgb(0,0,0)" opacity="1.0" /><rect x="420" y="260" width="20" height="20" fill="rgb(0,0,0)" opacity="1.0" /><rect x="440" y="260" width="20" height="20" fill="rgb(0,0,0)" opacity="1.0" /><rect x="460" y="260" width="20" height="20" fill="rgb(0,0,0)" opacity="1.0" /><polygon points="480,260 490,260 500,280 480,280" fill="rgb(0,0,0)" opacity="1.0" /><rect x="540" y="260" width="20" height="20" fill="rgb(0,0,0)" opacity="1.0" /><rect x="560" y="260" width="20" height="20" fill="rgb(0,0,0)" opacity="1.0" /><polygon points="80,290 100,280 100,300 80,300" fill="rgb(0,0,0)" opacity="1.0" /><rect x="140" y="280" width="20" height="20" fill="rgb(0,0,0)" opacity="1.0" /><rect x="160" y="280" width="20" height="20" fill="rgb(0,0,0)" opacity="1.0" /><rect x="180" y="280" width="20" height="20" fill="rgb(0,0,0)" opacity="1.0" /><polygon points="200,280 210,280 220,300 200,300" fill="rgb(0,0,0)" opacity="1.0" /><polygon points="280,290 300,280 300,300 280,300" fill="rgb(0,0,0)" opacity="1.0" /><rect x="340" y="280" width="20" height="20" fill="rgb(0,0,0)" opacity="1.0" /><polygon points="520,290 540,280 540,300 520,300" fill="rgb(0,0,0)" opacity="1.0" /><rect x="560" y="280" width="20" height="20" fill="rgb(0,0,0)" opacity="1.0" /><polygon points="80,300 100,300 100,310 80,320" fill="rgb(0,0,0)" opacity="1.0" /><rect x="120" y="300" width="20" height="20" fill="rgb(0,0,0)" opacity="1.0" /><rect x="140" y="300" width="20" height="20" fill="rgb(0,0,0)" opacity="1.0" /><rect x="220" y="300" width="20" height="20" fill="rgb(0,0,0)" opacity="1.0" /><polygon points="260,300 280,300 280,320 270,320" fill="rgb(0,0,0)" opacity="1.0" /><rect x="280" y="300" width="20" height="20" fill="rgb(0,0,0)" opacity="1.0" /><rect x="300" y="300" width="20" height="20" fill="rgb(0,0,0)" opacity="1.0" /><rect x="320" y="300" width="20" height="20" fill="rgb(0,0,0)" opacity="1.0" /><polygon points="380,310 400,300 400,320 380,320" fill="rgb(0,0,0)" opacity="1.0" /><polygon points="440,310 460,300 460,320 440,320" fill="rgb(0,0,0)" opacity="1.0" /><polygon points="520,300 540,300 540,310 520,320" fill="rgb(0,0,0)" opacity="1.0" /><rect x="560" y="300" width="20" height="20" fill="rgb(0,0,0)" opacity="1.0" /><polygon points="100,320 120,320 120,340 110,340" fill="rgb(0,0,0)" opacity="1.0" /><rect x="120" y="320" width="20" height="20" fill="rgb(0,0,0)" opacity="1.0" /><rect x="160" y="320" width="20" height="20" fill="rgb(0,0,0)" opacity="1.0" /><rect x="200" y="320" width="20" height="20" fill="rgb(0,0,0)" opacity="1.0" /><rect x="240" y="320" width="20" height="20" fill="rgb(0,0,0)" opacity="1.0" /><rect x="320" y="320" width="20" height="20" fill="rgb(0,0,0)" opacity="1.0" /><polygon points="360,320 380,320 380,340 370,340" fill="rgb(0,0,0)" opacity="1.0" /><rect x="380" y="320" width="20" height="20" fill="rgb(0,0,0)" opacity="1.0" /><rect x="400" y="320" width="20" height="20" fill="rgb(0,0,0)" opacity="1.0" /><rect x="420" y="320" width="20" height="20" fill="rgb(0,0,0)" opacity="1.0" /><rect x="440" y="320" width="20" height="20" fill="rgb(0,0,0)" opacity="1.0" /><rect x="480" y="320" width="20" height="20" fill="rgb(0,0,0)" opacity="1.0" /><polygon points="540,320 560,320 560,340 550,340" fill="rgb(0,0,0)" opacity="1.0" /><rect x="560" y="320" width="20" height="20" fill="rgb(0,0,0)" opacity="1.0" /><rect x="120" y="340" width="20" height="20" fill="rgb(0,0,0)" opacity="1.0" /><polygon points="220,350 240,340 240,360 220,360" fill="rgb(0,0,0)" opacity="1.0" /><polygon points="280,340 300,340 300,360 290,360" fill="rgb(0,0,0)" opacity="1.0" /><rect x="300" y="340" width="20" height="20" fill="rgb(0,0,0)" opacity="1.0" /><rect x="320" y="340" width="20" height="20" fill="rgb(0,0,0)" opacity="1.0" /><polygon points="380,340 400,340 400,350 380,360" fill="rgb(0,0,0)" opacity="1.0" /><rect x="500" y="340" width="20" height="20" fill="rgb(0,0,0)" opacity="1.0" /><polygon points="560,340 580,340 580,350 560,360" fill="rgb(0,0,0)" opacity="1.0" /><polygon points="100,360 120,360 120,380 110,380" fill="rgb(0,0,0)" opacity="1.0" /><rect x="120" y="360" width="20" height="20" fill="rgb(0,0,0)" opacity="1.0" /><polygon points="160,370 180,360 180,380 160,380" fill="rgb(0,0,0)" opacity="1.0" /><polygon points="200,360 220,360 220,380 210,380" fill="rgb(0,0,0)" opacity="1.0" /><rect x="220" y="360" width="20" height="20" fill="rgb(0,0,0)" opacity="1.0" /><rect x="300" y="360" width="20" height="20" fill="rgb(0,0,0)" opacity="1.0" /><rect x="340" y="360" width="20" height="20" fill="rgb(0,0,0)" opacity="1.0" /><rect x="400" y="360" width="20" height="20" fill="rgb(0,0,0)" opacity="1.0" /><polygon points="420,360 430,360 440,380 420,380" fill="rgb(0,0,0)" opacity="1.0" /><rect x="480" y="360" width="20" height="20" fill="rgb(0,0,0)" opacity="1.0" /><rect x="80" y="380" width="20" height="20" fill="rgb(0,0,0)" opacity="1.0" /><rect x="120" y="380" width="20" height="20" fill="rgb(0,0,0)" opacity="1.0" /><rect x="140" y="380" width="20" height="20" fill="rgb(0,0,0)" opacity="1.0" /><rect x="160" y="380" width="20" height="20" fill="rgb(0,0,0)" opacity="1.0" /><rect x="220" y="380" width="20" height="20" fill="rgb(0,0,0)" opacity="1.0" /><polygon points="240,380 250,380 260,400 240,400" fill="rgb(0,0,0)" opacity="1.0" /><polygon points="300,380 320,380 320,390 300,400" fill="rgb(0,0,0)" opacity="1.0" /><rect x="400" y="380" width="20" height="20" fill="rgb(0,0,0)" opacity="1.0" /><polygon points="440,390 460,380 460,400 440,400" fill="rgb(0,0,0)" opacity="1.0" /><rect x="500" y="380" width="20" height="20" fill="rgb(0,0,0)" opacity="1.0" /><rect x="520" y="380" width="20" height="20" fill="rgb(0,0,0)" opacity="1.0" /><rect x="540" y="380" width="20" height="20" fill="rgb(0,0,0)" opacity="1.0" /><polygon points="560,380 570,380 580,400 560,400" fill="rgb(0,0,0)" opacity="1.0" /><polygon points="120,400 140,400 140,410 120,420" fill="rgb(0,0,0)" opacity="1.0" /><rect x="160" y="400" width="20" height="20" fill="rgb(0,0,0)" opacity="1.0" /><rect x="180" y="400" width="20" height="20" fill="rgb(0,0,0)" opacity="1.0" /><polygon points="200,400 210,400 220,420 200,420" fill="rgb(0,0,0)" opacity="1.0" /><rect x="320" y="400" width="20" height="20" fill="rgb(0,0,0)" opacity="1.0" /><rect x="360" y="400" width="20" height="20" fill="rgb(0,0,0)" opacity="1.0" /><rect x="400" y="400" width="20" height="20" fill="rgb(0,0,0)" opacity="1.0" /><rect x="420" y="400" width="20" height="20" fill="rgb(0,0,0)" opacity="1.0" /><rect x="440" y="400" width="20" height="20" fill="rgb(0,0,0)" opacity="1.0" /><rect x="460" y="400" width="20" height="20" fill="rgb(0,0,0)" opacity="1.0" /><rect x="480" y="400" width="20" height="20" fill="rgb(0,0,0)" opacity="1.0" /><rect x="500" y="400" width="20" height="20" fill="rgb(0,0,0)" opacity="1.0" /><polygon points="540,400 560,400 560,410 540,420" fill="rgb(0,0,0)" opacity="1.0" /><rect x="240" y="420" width="20" height="20" fill="rgb(0,0,0)" opacity="1.0" /><rect x="260" y="420" width="20" height="20" fill="rgb(0,0,0)" opacity="1.0" /><rect x="280" y="420" width="20" height="20" fill="rgb(0,0,0)" opacity="1.0" /><rect x="400" y="420" width="20" height="20" fill="rgb(0,0,0)" opacity="1.0" /><rect x="480" y="420" width="20" height="20" fill="rgb(0,0,0)" opacity="1.0" /><rect x="500" y="420" width="20" height="20" fill="rgb(0,0,0)" opacity="1.0" /><rect x="520" y="420" width="20" height="20" fill="rgb(0,0,0)" opacity="1.0" /><rect x="240" y="440" width="20" height="20" fill="rgb(0,0,0)" opacity="1.0" /><rect x="280" y="440" width="20" height="20" fill="rgb(0,0,0)" opacity="1.0" /><rect x="340" y="440" width="20" height="20" fill="rgb(0,0,0)" opacity="1.0" /><rect x="360" y="440" width="20" height="20" fill="rgb(0,0,0)" opacity="1.0" /><rect x="400" y="440" width="20" height="20" fill="rgb(0,0,0)" opacity="1.0" /><rect x="440" y="440" width="20" height="20" fill="rgb(0,0,0)" opacity="1.0" /><rect x="480" y="440" width="20" height="20" fill="rgb(0,0,0)" opacity="1.0" /><rect x="500" y="440" width="20" height="20" fill="rgb(0,0,0)" opacity="1.0" /><rect x="520" y="440" width="20" height="20" fill="rgb(0,0,0)" opacity="1.0" /><rect x="540" y="440" width="20" height="20" fill="rgb(0,0,0)" opacity="1.0" /><rect x="560" y="440" width="20" height="20" fill="rgb(0,0,0)" opacity="1.0" /><polygon points="240,460 260,460 260,470 240,480" fill="rgb(0,0,0)" opacity="1.0" /><rect x="280" y="460" width="20" height="20" fill="rgb(0,0,0)" opacity="1.0" /><polygon points="300,460 310,460 320,480 300,480" fill="rgb(0,0,0)" opacity="1.0" /><rect x="340" y="460" width="20" height="20" fill="rgb(0,0,0)" opacity="1.0" /><rect x="360" y="460" width="20" height="20" fill="rgb(0,0,0)" opacity="1.0" /><rect x="400" y="460" width="20" height="20" fill="rgb(0,0,0)" opacity="1.0" /><rect x="480" y="460" width="20" height="20" fill="rgb(0,0,0)" opacity="1.0" /><rect x="500" y="460" width="20" height="20" fill="rgb(0,0,0)" opacity="1.0" /><rect x="520" y="460" width="20" height="20" fill="rgb(0,0,0)" opacity="1.0" /><rect x="540" y="460" width="20" height="20" fill="rgb(0,0,0)" opacity="1.0" /><rect x="560" y="460" width="20" height="20" fill="rgb(0,0,0)" opacity="1.0" /><rect x="340" y="480" width="20" height="20" fill="rgb(0,0,0)" opacity="1.0" /><rect x="360" y="480" width="20" height="20" fill="rgb(0,0,0)" opacity="1.0" /><rect x="400" y="480" width="20" height="20" fill="rgb(0,0,0)" opacity="1.0" /><rect x="420" y="480" width="20" height="20" fill="rgb(0,0,0)" opacity="1.0" /><rect x="440" y="480" width="20" height="20" fill="rgb(0,0,0)" opacity="1.0" /><rect x="460" y="480" width="20" height="20" fill="rgb(0,0,0)" opacity="1.0" /><rect x="480" y="480" width="20" height="20" fill="rgb(0,0,0)" opacity="1.0" /><polygon points="520,480 540,480 540,490 520,500" fill="rgb(0,0,0)" opacity="1.0" /><rect x="560" y="480" width="20" height="20" fill="rgb(0,0,0)" opacity="1.0" /><rect x="240" y="500" width="20" height="20" fill="rgb(0,0,0)" opacity="1.0" /><rect x="260" y="500" width="20" height="20" fill="rgb(0,0,0)" opacity="1.0" /><polygon points="400,500 420,500 420,510 400,520" fill="rgb(0,0,0)" opacity="1.0" /><rect x="440" y="500" width="20" height="20" fill="rgb(0,0,0)" opacity="1.0" /><rect x="460" y="500" width="20" height="20" fill="rgb(0,0,0)" opacity="1.0" /><rect x="480" y="500" width="20" height="20" fill="rgb(0,0,0)" opacity="1.0" /><rect x="540" y="500" width="20" height="20" fill="rgb(0,0,0)" opacity="1.0" /><rect x="560" y="500" width="20" height="20" fill="rgb(0,0,0)" opacity="1.0" /><rect x="240" y="520" width="20" height="20" fill="rgb(0,0,0)" opacity="1.0" /><rect x="260" y="520" width="20" height="20" fill="rgb(0,0,0)" opacity="1.0" /><rect x="360" y="520" width="20" height="20" fill="rgb(0,0,0)" opacity="1.0" /><polygon points="380,520 390,520 400,540 380,540" fill="rgb(0,0,0)" opacity="1.0" /><polygon points="420,530 440,520 440,540 420,540" fill="rgb(0,0,0)" opacity="1.0" /><rect x="460" y="520" width="20" height="20" fill="rgb(0,0,0)" opacity="1.0" /><rect x="500" y="520" width="20" height="20" fill="rgb(0,0,0)" opacity="1.0" /><rect x="520" y="520" width="20" height="20" fill="rgb(0,0,0)" opacity="1.0" /><rect x="540" y="520" width="20" height="20" fill="rgb(0,0,0)" opacity="1.0" /><rect x="280" y="540" width="20" height="20" fill="rgb(0,0,0)" opacity="1.0" /><rect x="300" y="540" width="20" height="20" fill="rgb(0,0,0)" opacity="1.0" /><rect x="320" y="540" width="20" height="20" fill="rgb(0,0,0)" opacity="1.0" /><rect x="340" y="540" width="20" height="20" fill="rgb(0,0,0)" opacity="1.0" /><rect x="360" y="540" width="20" height="20" fill="rgb(0,0,0)" opacity="1.0" /><polygon points="420,540 440,540 440,550 420,560" fill="rgb(0,0,0)" opacity="1.0" /><rect x="460" y="540" width="20" height="20" fill="rgb(0,0,0)" opacity="1.0" /><rect x="480" y="540" width="20" height="20" fill="rgb(0,0,0)" opacity="1.0" /><rect x="500" y="540" width="20" height="20" fill="rgb(0,0,0)" opacity="1.0" /><rect x="520" y="540" width="20" height="20" fill="rgb(0,0,0)" opacity="1.0" /><rect x="540" y="540" width="20" height="20" fill="rgb(0,0,0)" opacity="1.0" /><rect x="560" y="540" width="20" height="20" fill="rgb(0,0,0)" opacity="1.0" /><polygon points="240,560 260,560 260,580 250,580" fill="rgb(0,0,0)" opacity="1.0" /><rect x="260" y="560" width="20" height="20" fill="rgb(0,0,0)" opacity="1.0" /><rect x="280" y="560" width="20" height="20" fill="rgb(0,0,0)" opacity="1.0" /><rect x="300" y="560" width="20" height="20" fill="rgb(0,0,0)" opacity="1.0" /><polygon points="460,560 480,560 480,570 460,580" fill="rgb(0,0,0)" opacity="1.0" /><polygon points="500,560 520,560 520,570 500,580" fill="rgb(0,0,0)" opacity="1.0" /><rect x="540" y="560" width="20" height="20" fill="rgb(0,0,0)" opacity="1.0" /><rect x="560" y="560" width="20" height="20" fill="rgb(0,0,0)" opacity="1.0" /><path d="M80 80 H192.0 A28.0 28.0 0 0 1 220 108.0 V220 H108.0 A28.0 28.0 0 0 1 80 192.0 V108.0 A28.0 28.0 0 0 1 108 80 Z M100.0 100.0 H180.0 A20.0 20.0 0 0 1 200.0 120.0 V200.0 H120.0 A20.0 20.0 0 0 1 100.0 180.0 V120.0 A20.0 20.0 0 0 1 120.0 100.0 Z" fill-rule="evenodd" fill="rgb(0,0,0)" opacity="1.0" /><path d="M440 80 H552.0 A28.0 28.0 0 0 1 580 108.0 V192.0 A28.0 28.0 0 0 1 552.0 220 H440 V108.0 A28.0 28.0 0 0 1 468 80 Z M460.0 100.0 H540.0 A20.0 20.0 0 0 1 560.0 120.0 V180.0 A20.0 20.0 0 0 1 540.0 200.0 H460.0 V120.0 A20.0 20.0 0 0 1 480.0 100.0 Z" fill-rule="evenodd" fill="rgb(0,0,0)" opacity="1.0" /><rect x="120" y="120" rx="20.0" ry="20.0" width="60" height="60" fill="rgb(0,0,0)" opacity="1.0" /><rect x="480" y="120" rx="20.0" ry="20.0" width="60" height="60" fill="rgb(0,0,0)" opacity="1.0" /><path d="M80 440 H220 V552.0 A28.0 28.0 0 0 1 192.0 580 H108.0 A28.0 28.0 0 0 1 80 552.0 V468.0 A28.0 28.0 0 0 1 108 440 Z M100.0 460.0 H200.0 V540.0 A20.0 20.0 0 0 1 180.0 560.0 H120.0 A20.0 20.0 0 0 1 100.0 540.0 V480.0 A20.0 20.0 0 0 1 120.0 460.0 Z" fill-rule="evenodd" fill="rgb(0,0,0)" opacity="1.0" /><rect x="120" y="480" rx="20.0" ry="20.0" width="60" height="60" fill="rgb(0,0,0)" opacity="1.0" /></svg>