<svg viewBox="175 300 580 460" xmlns="http://www.w3.org/2000/svg" fill="none">
  <path d="M226.3 494.7Q445 399.5 518 369.1c138.9-57.7 167.7-67.8 186.5-68.1 4.2 0 13.4 1 19.4 5.8a21 21 0 0 1 7.1 13.6c.7 3.8 1.5 12.7.9 19.6-7.6 79.1-40.1 271-56.7 359.5-7 37.5-20.8 50-34.2 51.3-29 2.6-51-19.2-79.2-37.6-44-28.9-68.8-46.9-111.5-75-49.4-32.5-17.4-50.4 10.7-79.6 7.4-7.7 135.3-124 137.8-134.6.3-1.3.6-6.2-2.3-8.8-3-2.6-7.3-1.7-10.4-1q-6.6 1.5-210.9 139.4-30 20.5-54.2 20c-17.9-.4-52.2-10.1-77.7-18.4-31.3-10.2-56.2-15.6-54-32.9q1.6-13.5 37.1-27.6" fill="#000"/>
</svg>